<?xml version="1.0" standalone="no"?>
<!DOCTYPE svg PUBLIC "-//W3C//DTD SVG 1.1//EN" "http://www.w3.org/Graphics/SVG/1.1/DTD/svg11.dtd">
<svg xmlns="http://www.w3.org/2000/svg" id="LOGO_UNIQUE" data-name="LOGO UNIQUE" width="27.731000900268555" height="28.47800064086914" viewBox="0 0 27.731 28.478">
  <path id="Union_4" data-name="Union 4" d="M2.514,26.319a9.364,9.364,0,0,1,.434-13.207C7.8,8.255,13.931,9.217,16.6,11.885c.181.181.193.528-.062.53-4.3.039-9.673,1.166-10.774,5.159-.149.542.47,1.3,1.084,1.082a4.69,4.69,0,0,1,4.4,1.38A4.844,4.844,0,0,1,10.988,27a5.134,5.134,0,0,1-3.667,1.483A6.849,6.849,0,0,1,2.514,26.319Zm8.617-9.727c-.18-.18-.192-.527.063-.529,4.3-.039,9.673-1.165,10.773-5.16.149-.542-.469-1.3-1.083-1.081a4.69,4.69,0,0,1-4.4-1.38,4.843,4.843,0,0,1,.263-6.96c2.07-2.07,5.711-2.086,8.474.676a9.365,9.365,0,0,1-.434,13.207A10.951,10.951,0,0,1,17.007,18.8,8.389,8.389,0,0,1,11.131,16.592Z" transform="translate(0 0)" fill="#176de2"/>
</svg>